<svg xmlns="http://www.w3.org/2000/svg" width="139.47" height="79.8"><defs><style>.cls-2{fill:#555}</style></defs><path d="M0 0h120.76v78.81H0z" style="fill:#00a73c"/><path d="M124.38 72.25a7.55 7.55 0 1 0 7.54-7.54 7.55 7.55 0 0 0-7.54 7.54m.87 0a6.67 6.67 0 1 1 6.67 6.67 6.67 6.67 0 0 1-6.67-6.67" class="cls-2"/><path d="M135.59 77.13h-1.44l-2.93-4.53h-1.29v4.53h-1.16v-10h2.82a3.4 3.4 0 0 1 2.25.69 2.36 2.36 0 0 1 .82 1.92 2.47 2.47 0 0 1-.6 1.63 3 3 0 0 1-1.65 1l3.18 4.77m-5.66-5.53h1.47a2.2 2.2 0 0 0 1.49-.5 1.61 1.61 0 0 0 .57-1.26c0-1.11-.68-1.67-2-1.67h-1.5Z" class="cls-2"/><path d="M30.34 61.13c-6.62 0-14.85-5.06-14.85-15.51 0-8.11 8-14.58 14.85-18.46C37.16 31 45.19 37.51 45.19 45.62c0 10.45-8.22 15.51-14.85 15.51m45.5-15.68c0-8.11 8-14.59 14.84-18.46 6.82 3.87 14.85 10.35 14.85 18.46A15 15 0 0 1 90.68 61c-6.62 0-14.84-5.06-14.84-15.5m44.9-33.19c-12.27 0-23.14 3.06-30.53 6.9a64.94 64.94 0 0 0-29.85-6.9 64.94 64.94 0 0 0-29.85 6.9c-7.38-3.84-18.24-6.9-30.51-6.9v6.9c7.25 0 16.05 1.36 23 4.36-7.46 5-14.84 12.55-14.84 22.09 0 12.62 10.74 22.25 22.39 22.25a22.12 22.12 0 0 0 21.83-22.3c0-9.54-6.86-17.1-14.32-22.09a59.23 59.23 0 0 1 44.61 0c-7.46 5-14.32 12.55-14.32 22.09a22.12 22.12 0 0 0 21.86 22.25 22.43 22.43 0 0 0 22.23-22.25c0-9.54-7.22-17.1-14.68-22.09 6.91-3 15.73-4.36 23-4.36Z" style="fill:#fff"/></svg>