<svg xmlns="http://www.w3.org/2000/svg" id="_レイヤー_2" version="1.1" viewBox="0 0 213.3 209.5"><defs><style>.st1{fill:#fff}</style></defs><path d="M195.4 21.7h-40.5v12.8c0 6.4-5.2 11.5-11.5 11.5-6.4 0-11.5-5.2-11.5-11.5V21.7H80.3v12.8c0 6.4-5.2 11.5-11.5 11.5s-11.5-5.2-11.5-11.5V21.7H17.9C8 21.7 0 29.8 0 39.7v151.9c0 9.9 8 17.9 17.9 17.9h177.5c9.9 0 17.9-8 17.9-17.9V39.7c0-9.9-8-17.9-17.9-17.9Zm12.3 169.9c0 6.8-5.5 12.2-12.2 12.2H17.9c-6.8 0-12.2-5.5-12.2-12.2V70.4h202z" class="st1"/><g id="_日付"><path d="M39 88.7h25v25H39zM75.8 88.7h25v25h-25zM112.6 88.7h25v25h-25zM149.3 88.7h25v25h-25zM39 125.7h25v25H39zM75.8 125.7h25v25h-25zM112.6 125.7h25v25h-25zM149.3 125.7h25v25h-25zM39 162.8h25v25H39zM75.8 162.8h25v25h-25zM112.6 162.8h25v25h-25zM149.3 162.8h25v25h-25z" class="st1"/></g><rect width="15.3" height="41.1" x="61.3" y=".4" class="st1" rx="7.2" ry="7.2"/><rect width="15.3" height="41.1" x="135.9" y=".4" class="st1" rx="7.2" ry="7.2"/></svg>