<svg xmlns="http://www.w3.org/2000/svg" xml:space="preserve" viewBox="0 0 29 33"><path d="M11.397 5.984C10.779 3.107 8.384-.796 4.996.487c-1.212.418-2.238.75-2.993 1.687l5.191 7.995c.985-1.815 4.753-1.415 4.203-4.185M25.15 22.355c-1.34-.857-2.427-.875-3.296.176-1.172 1.791-1.957 2.548-2.777 2.63l7.337 6.406c.322-.213.635-.456.934-.737l.071-.094c2.863-3.411 1.156-6.26-2.269-8.381" style="fill:#fff"/><path d="M18.596 25.131c-.886-.174-1.897-1.004-3.517-2.115-2.078-1.468-4.107-3.083-5.227-5.258-.935-1.678-1.849-3.922-2.364-5.23-.237-.585-.524-1.392-.405-2.024l-.015.01-5.254-8.093c-6.967 9.054 14.011 35.326 24.304 29.306l-7.53-6.575z" style="fill:#fff"/><path d="M7.194 10.169 2.003 2.175c-.048.06-.101.116-.147.181-.016.021-.027.045-.042.065l5.21 8.025.003.005.022.033.01.015.009.013.01.016.006-.03c.022-.11.049-.217.099-.314q.006-.007.011-.015M19.077 25.16a1.6 1.6 0 0 1-.482-.03l-.007.022 7.53 6.574c.098-.056.2-.099.296-.161z"/></svg>