<svg xmlns="http://www.w3.org/2000/svg" xml:space="preserve" viewBox="0 0 28 32"><path d="M10.785 5.734C10.183 2.933 7.851-.868 4.552.382c-1.18.407-2.179.73-2.914 1.643L6.692 9.81c.959-1.768 4.628-1.379 4.093-4.076M24.176 21.674c-1.305-.834-2.363-.852-3.209.171-1.141 1.744-1.906 2.481-2.704 2.561l7.144 6.237q.472-.309.909-.718l.069-.092c2.788-3.319 1.126-6.093-2.209-8.159" style="fill:#a68b58"/><path d="M17.794 24.377c-.863-.169-1.847-.978-3.424-2.059-2.023-1.429-3.999-3.002-5.089-5.12-.91-1.634-1.8-3.819-2.302-5.092-.231-.57-.51-1.355-.394-1.971l-.015.01-5.116-7.88C-5.33 11.081 15.096 36.662 25.119 30.8l-7.332-6.402z" style="fill:#a68b58"/><path d="M6.692 9.809 1.638 2.025c-.047.059-.098.113-.143.177-.016.02-.026.043-.041.063l5.073 7.814.003.005.021.032.01.015.009.013.01.016.006-.029c.021-.107.048-.211.096-.306zM18.263 24.406q-.23.02-.469-.029l-.007.021 7.332 6.401c.095-.055.195-.096.288-.157z"/></svg>