<svg xmlns="http://www.w3.org/2000/svg" xml:space="preserve" viewBox="0 0 66.76 38.78"><path d="M0 .04h57.588v37.47H0z" style="fill:#00a23f"/><path d="M59.321 34.39a3.598 3.598 0 0 0 7.194 0 3.598 3.598 0 0 0-7.194 0m.419 0c0-1.75 1.425-3.17 3.178-3.17s3.178 1.42 3.178 3.17-1.425 3.17-3.178 3.17-3.178-1.42-3.178-3.17" style="fill:#231815"/><path d="M64.672 36.71h-.687l-1.395-2.15h-.618v2.15h-.558v-4.74h1.345c.448 0 .807.11 1.066.33s.389.52.389.91c0 .29-.1.55-.289.77s-.458.38-.787.46l1.524 2.27m-2.69-2.63h.697q.434 0 .717-.24a.77.77 0 0 0 .269-.6c0-.53-.329-.79-.966-.79h-.707v1.63z" style="fill:#231815"/><path d="M14.467 29.1c-3.158 0-7.084-2.41-7.084-7.37 0-3.85 3.826-6.93 7.084-8.78 3.248 1.84 7.084 4.92 7.084 8.78 0 4.97-3.926 7.37-7.084 7.37m21.7-7.46c0-3.86 3.826-6.94 7.084-8.78 3.248 1.84 7.084 4.92 7.084 8.78 0 4.96-3.916 7.37-7.084 7.37s-7.084-2.41-7.084-7.37M57.588 5.87c-5.848 0-11.039 1.45-14.556 3.28-3.517-1.83-8.389-3.28-14.238-3.28s-10.72 1.45-14.238 3.28C11.029 7.32 5.848 5.87 0 5.87v3.28c3.457 0 7.652.64 10.95 2.07-3.557 2.37-7.074 5.97-7.074 10.5 0 6 5.121 10.58 10.681 10.58s10.432-4.58 10.432-10.58c0-4.54-3.268-8.13-6.825-10.5 3.298-1.43 7.174-2.07 10.641-2.07s7.343.64 10.641 2.07c-3.557 2.37-6.825 5.97-6.825 10.5 0 6 4.872 10.58 10.432 10.58s10.601-4.58 10.601-10.58c0-4.54-3.437-8.13-7.004-10.5 3.298-1.43 7.502-2.07 10.96-2.07V5.87z" style="fill:#fff"/></svg>